<?xml version="1.0" encoding="UTF-8" standalone="no"?>
<!DOCTYPE svg PUBLIC "-//W3C//DTD SVG 1.1//EN" "http://www.w3.org/Graphics/SVG/1.1/DTD/svg11.dtd">
<svg width="100%" height="100%" viewBox="0 0 388 303" version="1.1" xmlns="http://www.w3.org/2000/svg" xmlns:xlink="http://www.w3.org/1999/xlink" xml:space="preserve" xmlns:serif="http://www.serif.com/" style="fill-rule:evenodd;clip-rule:evenodd;stroke-linejoin:round;stroke-miterlimit:2;">
    <g transform="matrix(1,0,0,1,-0.7,-153.11)">
        <path d="M210.54,304.9C246.45,385.76 198.91,444.72 193.78,455.42L56.57,202.16C39.32,171.79 21.92,157.73 0.7,153.11L190.86,153.11C181.39,156.46 180.35,159.25 174.42,165.28C168.5,171.27 165.44,179.18 165.26,189.04C165.13,198.89 168.88,211.37 176.48,226.39L210.53,304.9L210.54,304.9ZM387.99,153.11C374.27,158.19 363.24,163.63 354.86,169.47C346.46,175.33 339.61,182.85 334.29,192.04C328.95,201.18 323.99,213.28 319.38,228.31C314.82,213.28 309.88,201.18 304.56,192.04C299.22,182.85 292.37,175.34 283.99,169.47C275.59,163.63 264.56,158.19 250.86,153.11L387.99,153.11Z" style="fill:rgb(249,248,247);fill-rule:nonzero;"/>
    </g>
</svg>
